<mxfile host="app.diagrams.net" modified="2021-04-02T21:03:52.719Z" agent="5.0 (Windows NT 10.0; Win64; x64) AppleWebKit/537.36 (KHTML, like Gecko) Chrome/89.0.4389.114 Safari/537.36" etag="-UMXM02ItB3vDjlPcT5f" version="14.5.3" type="github">
  <diagram id="kBLCUCpQNitKWKJYPKyf" name="Page-1">
    <mxGraphModel dx="1038" dy="1648" grid="1" gridSize="10" guides="1" tooltips="1" connect="1" arrows="1" fold="1" page="1" pageScale="1" pageWidth="850" pageHeight="1100" math="0" shadow="0">
      <root>
        <mxCell id="0" />
        <mxCell id="1" parent="0" />
        <mxCell id="rl1GhbJkHeDPnz2YbaBC-1" value="" style="verticalLabelPosition=bottom;verticalAlign=top;html=1;shape=card;whiteSpace=wrap;size=20;arcSize=12;fillColor=#dae8fc;strokeColor=#6c8ebf;" parent="1" vertex="1">
          <mxGeometry x="70" y="50" width="100" height="60" as="geometry" />
        </mxCell>
        <mxCell id="bvYFTVPqIxDFdQ-DHIkS-1" value="" style="ellipse;whiteSpace=wrap;html=1;aspect=fixed;" parent="1" vertex="1">
          <mxGeometry x="390" y="170" width="80" height="80" as="geometry" />
        </mxCell>
        <mxCell id="bvYFTVPqIxDFdQ-DHIkS-2" value="" style="shape=process;whiteSpace=wrap;html=1;backgroundOutline=1;" parent="1" vertex="1">
          <mxGeometry x="310" y="390" width="120" height="60" as="geometry" />
        </mxCell>
        <mxCell id="bvYFTVPqIxDFdQ-DHIkS-3" value="" style="rounded=0;whiteSpace=wrap;html=1;" parent="1" vertex="1">
          <mxGeometry x="70" y="-420" width="120" height="60" as="geometry" />
        </mxCell>
      </root>
    </mxGraphModel>
  </diagram>
</mxfile>
